<svg xmlns="http://www.w3.org/2000/svg" width="100" height="100" viewBox="0 0 100 100">
  <path d="M98.98 77.19c-3.57.91-5.79.04-7.78-2.94-4.46-6.69-9.38-13.07-14.14-19.56-.61-.84-1.25-1.66-2.04-2.71-4.85 6.74-10.63 13.57-15.88 20.24-1.89 2.7-3.88 3.88-7.42 2.93l21.26-28.54L52.47 22.31c3.41-.67 5.78-.33 7.88 2.73 4.63 6.77 9.72 13.22 14.81 20 5.12-6.8 10.16-13.27 14.92-19.99 1.91-2.7 3.96-3.72 7.39-2.73-2.6 3.45-5.16 6.83-7.72 10.2-3.46 4.53-6.85 9.12-10.43 13.54-1.27 1.58-1.06 2.61.07 4.11 6.53 8.48 13.48 17.11 20.59 26.02zM1.04 61.01c.57-2.97.95-5.99 1.81-8.9 4.92-17.57 25.1-24.88 38.98-13.98 7.63 6.14 9.87 15.08 9.45 26.19H5.34c-.69 18.22 12.42 29.24 29.11 23.62 5.86-1.96 9.3-6.53 11.04-12.26.88-2.87 2.32-3.32 5.02-2.5-1.38 7.16-4.51 13.15-11.05 16.9-9.82 5.61-23.83 3.8-31.2-4.01-4.93-5.14-7.59-11.4-8.47-18.1-.12-.99-.37-1.89-.56-2.83q.02-2.42.02-4.84zm4.8-1.18h41.25c-.27-13.13-8.45-22.46-19.62-22.54-12.26-.1-21.06 9.01-21.63 22.54z"/>
</svg>
